<svg width="180" height="180" viewBox="0 0 180 180" fill="none" xmlns="http://www.w3.org/2000/svg">
  <path
    d="M105.991 106.718H130.005L111.916 74.1907C110.249 74.3521 108.485 74.7947 106.753 77.2487C103.973 81.1884 86.3394 106.226 83.4768 110.299C80.2541 114.884 76.3707 116.928 73.1492 117.896C70.3007 118.783 67.907 118.783 66.7069 118.783H59.6001L30.1499 61.1992H82.4966L73.9893 73.2809H49.9653L68.0505 105.815C69.7182 105.653 71.4815 105.204 73.2131 102.75C75.993 98.8109 93.6267 73.7723 96.4893 69.6997C99.712 65.1147 103.596 63.0713 106.818 62.1033C109.675 61.2448 112.059 61.1992 113.259 61.1992H120.364L149.813 118.785L97.4738 118.799L105.991 106.718V106.718Z"
    fill="#00D5B0" />
</svg>
